<svg
  width="192"
  height="192"
  viewBox="0 0 192 192"
  fill="none"
  xmlns="http://www.w3.org/2000/svg"
>
<rect
    x="192"
    width="192"
    height="192"
    rx="32"
    transform="rotate(90 192 0)"
    fill="#FAFAFA"
  />
<path
    d="M68.8433 49.125L41.5933 64.75V127.25L68.8433 142.875L68.9369 142.929L96.0933 127.25L82.4683 119.438L68.8433 111.625V96V80.375C68.8433 80.375 77.1474 75.6135 82.4683 72.5625C87.7892 69.5115 96.0933 64.75 96.0933 64.75L68.9369 49.0713L68.8433 49.125Z"
    fill="#262626"
  />
<path
    d="M123.343 111.625L109.718 119.438L96.0933 127.25L109.718 135.062L123.343 142.875L150.407 127.25V64.75L123.343 49.125L96.0933 64.75L123.343 80.375V111.625Z"
    fill="#262626"
  />
<path
    d="M82.4683 150.688L96.0933 158.5L123.343 142.875L109.718 135.062L96.0933 127.25L68.9369 142.929L82.4683 150.688Z"
    fill="#525252"
  />
<path
    d="M123.343 49.125L96.0933 33.5L68.9369 49.0713L96.0933 64.75L123.343 49.125Z"
    fill="#525252"
  />
<path
    d="M96.0933 127.25L109.718 119.438L123.343 111.625V80.375L96.0933 64.75M96.0933 127.25L82.4683 119.438L68.8433 111.625V96V80.375C68.8433 80.375 77.1474 75.6135 82.4683 72.5625C87.7892 69.5115 96.0933 64.75 96.0933 64.75M96.0933 127.25L109.718 135.062L123.343 142.875M96.0933 127.25L68.9369 142.929M96.0933 64.75L123.343 49.125M96.0933 64.75L68.9369 49.0713M123.343 49.125L96.0933 33.5L68.9369 49.0713M123.343 49.125L150.407 64.75V127.25L123.343 142.875M123.343 142.875L96.0933 158.5L82.4683 150.688L68.9369 142.929M68.9369 49.0713L68.8433 49.125L41.5933 64.75V127.25L68.8433 142.875L68.9369 142.929"
    stroke="#262626"
    stroke-width="4"
  />
</svg>
